name rise38.3101peak57.3503fall81.6963.mot
datacolumns 19
datarows 33
range 6.57831600000000 6.63164900000000
endheader
time	ground_force1_vx	ground_force1_vy	ground_force1_vz	ground_force1_px	ground_force1_py	ground_force1_pz	ground_force2_vx	ground_force2_vy	ground_force2_vz	ground_force2_px	ground_force2_py	ground_force2_pz	ground_torque1_x	ground_torque1_y	ground_torque1_z	ground_torque2_x	ground_torque2_y	ground_torque2_z	
6.57831600000000	71.80663600000000	790.18615199999999	57.73721900000000	0.34638000000000	0.00000000000000	0.12465600000000	0.00000000000000	0.00000000000000	0.00000000000000	0.00000000000000	0.00000000000000	0.00000000000000	0.00000000000000	21.79891500000000	0.00000000000000	0.00000000000000	0.00000000000000	0.00000000000000	
6.57998700000000	70.67271900000000	790.47896700000001	57.72557600000000	0.34507900000000	0.00000000000000	0.12468700000000	0.00000000000000	0.00000000000000	0.00000000000000	0.00000000000000	0.00000000000000	0.00000000000000	0.00000000000000	21.89361100000000	0.00000000000000	0.00000000000000	0.00000000000000	0.00000000000000	
6.58164800000000	69.53976400000001	790.64236500000004	57.71197800000000	0.34378300000000	0.00000000000000	0.12471900000000	0.00000000000000	0.00000000000000	0.00000000000000	0.00000000000000	0.00000000000000	0.00000000000000	0.00000000000000	21.98815600000000	0.00000000000000	0.00000000000000	0.00000000000000	0.00000000000000	
6.58331700000000	68.40884400000000	790.67797199999995	57.69630200000000	0.34249100000000	0.00000000000000	0.12475200000000	0.00000000000000	0.00000000000000	0.00000000000000	0.00000000000000	0.00000000000000	0.00000000000000	0.00000000000000	22.08230800000000	0.00000000000000	0.00000000000000	0.00000000000000	0.00000000000000	
6.58498000000000	67.28095200000000	790.58756500000004	57.67837200000000	0.34120300000000	0.00000000000000	0.12478700000000	0.00000000000000	0.00000000000000	0.00000000000000	0.00000000000000	0.00000000000000	0.00000000000000	0.00000000000000	22.17579600000000	0.00000000000000	0.00000000000000	0.00000000000000	0.00000000000000	
6.58665100000000	66.15700800000000	790.37307499999997	57.65796000000000	0.33991800000000	0.00000000000000	0.12482300000000	0.00000000000000	0.00000000000000	0.00000000000000	0.00000000000000	0.00000000000000	0.00000000000000	0.00000000000000	22.26832300000000	0.00000000000000	0.00000000000000	0.00000000000000	0.00000000000000	
6.58830900000000	65.03785400000000	790.03659200000004	57.63479300000000	0.33863700000000	0.00000000000000	0.12486000000000	0.00000000000000	0.00000000000000	0.00000000000000	0.00000000000000	0.00000000000000	0.00000000000000	0.00000000000000	22.35956800000000	0.00000000000000	0.00000000000000	0.00000000000000	0.00000000000000	
6.58998300000000	63.92426400000000	789.58037600000000	57.60856000000000	0.33735900000000	0.00000000000000	0.12489800000000	0.00000000000000	0.00000000000000	0.00000000000000	0.00000000000000	0.00000000000000	0.00000000000000	0.00000000000000	22.44919300000000	0.00000000000000	0.00000000000000	0.00000000000000	0.00000000000000	
6.59164500000000	62.81694200000000	789.00685099999998	57.57891500000000	0.33608300000000	0.00000000000000	0.12493700000000	0.00000000000000	0.00000000000000	0.00000000000000	0.00000000000000	0.00000000000000	0.00000000000000	0.00000000000000	22.53684200000000	0.00000000000000	0.00000000000000	0.00000000000000	0.00000000000000	
6.59331200000000	61.71652500000000	788.31861600000002	57.54548300000000	0.33480900000000	0.00000000000000	0.12497700000000	0.00000000000000	0.00000000000000	0.00000000000000	0.00000000000000	0.00000000000000	0.00000000000000	0.00000000000000	22.62214700000000	0.00000000000000	0.00000000000000	0.00000000000000	0.00000000000000	
6.59498200000000	60.62359100000000	787.51844300000005	57.50786600000000	0.33353600000000	0.00000000000000	0.12501800000000	0.00000000000000	0.00000000000000	0.00000000000000	0.00000000000000	0.00000000000000	0.00000000000000	0.00000000000000	22.70473500000000	0.00000000000000	0.00000000000000	0.00000000000000	0.00000000000000	
6.59665700000000	59.53865400000000	786.60927700000002	57.46565100000000	0.33226400000000	0.00000000000000	0.12506100000000	0.00000000000000	0.00000000000000	0.00000000000000	0.00000000000000	0.00000000000000	0.00000000000000	0.00000000000000	22.78422500000000	0.00000000000000	0.00000000000000	0.00000000000000	0.00000000000000	
6.59830900000000	58.46217600000000	785.59423900000002	57.41841200000000	0.33099200000000	0.00000000000000	0.12510400000000	0.00000000000000	0.00000000000000	0.00000000000000	0.00000000000000	0.00000000000000	0.00000000000000	0.00000000000000	22.86023500000000	0.00000000000000	0.00000000000000	0.00000000000000	0.00000000000000	
6.59998100000000	57.39456500000000	784.47662100000002	57.36571800000000	0.32972000000000	0.00000000000000	0.12514900000000	0.00000000000000	0.00000000000000	0.00000000000000	0.00000000000000	0.00000000000000	0.00000000000000	0.00000000000000	22.93238700000000	0.00000000000000	0.00000000000000	0.00000000000000	0.00000000000000	
6.60164800000000	56.33618300000000	783.25988600000005	57.30713800000000	0.32844600000000	0.00000000000000	0.12519500000000	0.00000000000000	0.00000000000000	0.00000000000000	0.00000000000000	0.00000000000000	0.00000000000000	0.00000000000000	23.00030800000000	0.00000000000000	0.00000000000000	0.00000000000000	0.00000000000000	
6.60331200000000	55.28734300000000	781.94766300000003	57.24224500000000	0.32717000000000	0.00000000000000	0.12524100000000	0.00000000000000	0.00000000000000	0.00000000000000	0.00000000000000	0.00000000000000	0.00000000000000	0.00000000000000	23.06363300000000	0.00000000000000	0.00000000000000	0.00000000000000	0.00000000000000	
6.60498400000000	54.24832300000000	780.54374399999995	57.17062600000000	0.32589100000000	0.00000000000000	0.12528900000000	0.00000000000000	0.00000000000000	0.00000000000000	0.00000000000000	0.00000000000000	0.00000000000000	0.00000000000000	23.12201200000000	0.00000000000000	0.00000000000000	0.00000000000000	0.00000000000000	
6.60664800000000	53.21935900000000	779.05207499999995	57.09187900000000	0.32460900000000	0.00000000000000	0.12533700000000	0.00000000000000	0.00000000000000	0.00000000000000	0.00000000000000	0.00000000000000	0.00000000000000	0.00000000000000	23.17510800000000	0.00000000000000	0.00000000000000	0.00000000000000	0.00000000000000	
6.60831600000000	52.20065800000000	777.47675600000002	57.00562700000000	0.32332200000000	0.00000000000000	0.12538600000000	0.00000000000000	0.00000000000000	0.00000000000000	0.00000000000000	0.00000000000000	0.00000000000000	0.00000000000000	23.22260300000000	0.00000000000000	0.00000000000000	0.00000000000000	0.00000000000000	
6.60998300000000	51.19239500000000	775.82202600000005	56.91151400000000	0.32203000000000	0.00000000000000	0.12543700000000	0.00000000000000	0.00000000000000	0.00000000000000	0.00000000000000	0.00000000000000	0.00000000000000	0.00000000000000	23.26420000000000	0.00000000000000	0.00000000000000	0.00000000000000	0.00000000000000	
6.61165000000000	50.19472000000000	774.09226000000001	56.80921600000000	0.32073200000000	0.00000000000000	0.12548800000000	0.00000000000000	0.00000000000000	0.00000000000000	0.00000000000000	0.00000000000000	0.00000000000000	0.00000000000000	23.29962600000000	0.00000000000000	0.00000000000000	0.00000000000000	0.00000000000000	
6.61331000000000	49.20776200000000	772.29195700000002	56.69844100000000	0.31942800000000	0.00000000000000	0.12554000000000	0.00000000000000	0.00000000000000	0.00000000000000	0.00000000000000	0.00000000000000	0.00000000000000	0.00000000000000	23.32863400000000	0.00000000000000	0.00000000000000	0.00000000000000	0.00000000000000	
6.61498000000000	48.23163200000000	770.42573100000004	56.57893300000000	0.31811700000000	0.00000000000000	0.12559300000000	0.00000000000000	0.00000000000000	0.00000000000000	0.00000000000000	0.00000000000000	0.00000000000000	0.00000000000000	23.35100400000000	0.00000000000000	0.00000000000000	0.00000000000000	0.00000000000000	
6.61664800000000	47.26642200000000	768.49830099999997	56.45047700000000	0.31679700000000	0.00000000000000	0.12564600000000	0.00000000000000	0.00000000000000	0.00000000000000	0.00000000000000	0.00000000000000	0.00000000000000	0.00000000000000	23.36654600000000	0.00000000000000	0.00000000000000	0.00000000000000	0.00000000000000	
6.61831700000000	46.31221800000000	766.51447599999995	56.31290000000000	0.31547000000000	0.00000000000000	0.12570100000000	0.00000000000000	0.00000000000000	0.00000000000000	0.00000000000000	0.00000000000000	0.00000000000000	0.00000000000000	23.37510100000000	0.00000000000000	0.00000000000000	0.00000000000000	0.00000000000000	
6.61998000000000	45.36909100000000	764.47914900000001	56.16607400000000	0.31413300000000	0.00000000000000	0.12575700000000	0.00000000000000	0.00000000000000	0.00000000000000	0.00000000000000	0.00000000000000	0.00000000000000	0.00000000000000	23.37654500000000	0.00000000000000	0.00000000000000	0.00000000000000	0.00000000000000	
6.62164600000000	44.43710900000000	762.39727900000003	56.00991900000000	0.31278600000000	0.00000000000000	0.12581300000000	0.00000000000000	0.00000000000000	0.00000000000000	0.00000000000000	0.00000000000000	0.00000000000000	0.00000000000000	23.37078400000000	0.00000000000000	0.00000000000000	0.00000000000000	0.00000000000000	
6.62332400000000	43.51633600000000	760.27387899999997	55.84440100000000	0.31143000000000	0.00000000000000	0.12587000000000	0.00000000000000	0.00000000000000	0.00000000000000	0.00000000000000	0.00000000000000	0.00000000000000	0.00000000000000	23.35776200000000	0.00000000000000	0.00000000000000	0.00000000000000	0.00000000000000	
6.62497900000000	42.60683500000000	758.11400500000002	55.66953900000000	0.31006300000000	0.00000000000000	0.12592800000000	0.00000000000000	0.00000000000000	0.00000000000000	0.00000000000000	0.00000000000000	0.00000000000000	0.00000000000000	23.33745600000000	0.00000000000000	0.00000000000000	0.00000000000000	0.00000000000000	
6.62664700000000	41.70866800000000	755.92274199999997	55.48540200000000	0.30868600000000	0.00000000000000	0.12598700000000	0.00000000000000	0.00000000000000	0.00000000000000	0.00000000000000	0.00000000000000	0.00000000000000	0.00000000000000	23.30987900000000	0.00000000000000	0.00000000000000	0.00000000000000	0.00000000000000	
6.62831300000000	40.82190200000000	753.70518500000003	55.29210900000000	0.30729800000000	0.00000000000000	0.12604600000000	0.00000000000000	0.00000000000000	0.00000000000000	0.00000000000000	0.00000000000000	0.00000000000000	0.00000000000000	23.27508000000000	0.00000000000000	0.00000000000000	0.00000000000000	0.00000000000000	
6.62997900000000	39.94660700000000	751.46643300000005	55.08983100000000	0.30589900000000	0.00000000000000	0.12610700000000	0.00000000000000	0.00000000000000	0.00000000000000	0.00000000000000	0.00000000000000	0.00000000000000	0.00000000000000	23.23314100000000	0.00000000000000	0.00000000000000	0.00000000000000	0.00000000000000	
6.63164900000000	39.08285800000000	749.21156800000006	54.87878800000000	0.30448900000000	0.00000000000000	0.12616800000000	0.00000000000000	0.00000000000000	0.00000000000000	0.00000000000000	0.00000000000000	0.00000000000000	0.00000000000000	23.18418200000000	0.00000000000000	0.00000000000000	0.00000000000000	0.00000000000000	
